<svg viewBox="0 0 607 525.7" fill="none" xmlns="http://www.w3.org/2000/svg">
  <g transform="translate(0, 0)">
    <path fill-rule="evenodd" clip-rule="evenodd" d="M100.8 474.8L339.2 61.8L303.5 0L0.6 524.6L0 525.7L1 525.1C32.9 505.7 66.3 488.9 100.8 474.8Z" fill="#1BA3EF"/>
  </g>
  <g transform="translate(145.9, 92.8)">
    <path fill-rule="evenodd" clip-rule="evenodd" d="M82.5 346.7L246.9 61.8L211.2 0L0 365.8C26.9 357.3 54.5 350.9 82.5 346.7Z" fill="#1660F4"/>
  </g>
  <g transform="translate(266.5, 185.6)">
    <path fill-rule="evenodd" clip-rule="evenodd" d="M71.5 249.5L179.9 61.8L144.2 0L0 249.6C23.8 247.9 47.7 247.8 71.5 249.5Z" fill="#6B3CDD"/>
  </g>
  <g transform="translate(371.7, 278.3)">
    <path fill-rule="evenodd" clip-rule="evenodd" d="M64 173L128.2 61.8L92.5 0L0 160.2C21.6 163.2 43 167.5 64 173Z" fill="#DB376A"/>
  </g>
  <g transform="translate(466.5, 371.1)">
    <path fill-rule="evenodd" clip-rule="evenodd" d="M58.4 111.6L87.2 61.8L51.5 0L0 89.3C19.8 95.7 39.3 103.2 58.4 111.6Z" fill="#F48A16"/>
  </g>
  <g transform="translate(552.8, 463.9)">
    <path fill-rule="evenodd" clip-rule="evenodd" d="M54.2 61.8L18.5 0L0 32C18.1 40.9 36.2 50.8 54.2 61.8Z" fill="#F7BD15"/>
  </g>
</svg>
